<svg xmlns="http://www.w3.org/2000/svg" viewBox="0 0 333.7 112.29"><defs><style>.cls-1{fill:#fff;}</style></defs><title>Asset 27</title><g id="Layer_2" data-name="Layer 2"><g id="Layer_1-2" data-name="Layer 1"><rect width="333.7" height="112.29" rx="54.76" ry="54.76"/><path class="cls-1" d="M77.05,61.41a8.57,8.57,0,0,1-3.29-.61,7.06,7.06,0,0,1-2.48-1.73,7.55,7.55,0,0,1-1.58-2.68A10.45,10.45,0,0,1,69.16,53a10.12,10.12,0,0,1,.59-3.5,8.33,8.33,0,0,1,1.68-2.77A7.71,7.71,0,0,1,74,44.89a8.1,8.1,0,0,1,3.26-.64,7.66,7.66,0,0,1,3.43.73A6.3,6.3,0,0,1,83.11,47a6.48,6.48,0,0,1,1.1,3.08H82.46A5.35,5.35,0,0,0,81.38,48a5.17,5.17,0,0,0-1.79-1.36,5.72,5.72,0,0,0-2.34-.47,5.61,5.61,0,0,0-3.13.88A6.09,6.09,0,0,0,72,49.47,7.63,7.63,0,0,0,71.22,53a8,8,0,0,0,.7,3.42,5.28,5.28,0,0,0,2,2.29,5.76,5.76,0,0,0,3.12.82A5.18,5.18,0,0,0,79.48,59a4.25,4.25,0,0,0,1.69-1.57,6.85,6.85,0,0,0,.88-2.55h1.26a8,8,0,0,1-2.09,4.94A5.72,5.72,0,0,1,77.05,61.41Zm5.85-.26c0-.56,0-1.2,0-1.9s.06-1.43.11-2.17.1-1.39.13-2H77.51V53.19h7.4v8Z"/><path class="cls-1" d="M93.73,61.41a6.33,6.33,0,0,1-3.1-.79,6.12,6.12,0,0,1-2.33-2.3,7.51,7.51,0,0,1,0-7.09,6.32,6.32,0,0,1,2.33-2.32,6.15,6.15,0,0,1,3.1-.82,6.07,6.07,0,0,1,3.08.82,6.25,6.25,0,0,1,2.3,2.32,7.58,7.58,0,0,1,0,7.09,6,6,0,0,1-2.3,2.3A6.25,6.25,0,0,1,93.73,61.41Zm0-1.92a4,4,0,0,0,2-.54,4.07,4.07,0,0,0,1.56-1.6,5.74,5.74,0,0,0,0-5.15,4.2,4.2,0,0,0-1.56-1.62,3.87,3.87,0,0,0-2-.57,4.12,4.12,0,0,0-2,.55,4.27,4.27,0,0,0-1.59,1.62,5.74,5.74,0,0,0,0,5.17A4.05,4.05,0,0,0,91.66,59,4.24,4.24,0,0,0,93.73,59.49Z"/><path class="cls-1" d="M107.13,48.35h7.58v1.92h-7.58ZM109.89,45H112V61.15h-2.06Z"/><path class="cls-1" d="M122.49,61.41a6.29,6.29,0,0,1-3.09-.79,6.15,6.15,0,0,1-2.34-2.3,7.58,7.58,0,0,1,0-7.09,6.35,6.35,0,0,1,2.34-2.32,6.11,6.11,0,0,1,3.09-.82,6,6,0,0,1,3.08.82,6.35,6.35,0,0,1,2.31,2.32,7.66,7.66,0,0,1,0,7.09,6.14,6.14,0,0,1-2.31,2.3A6.22,6.22,0,0,1,122.49,61.41Zm0-1.92a4.1,4.1,0,0,0,2-.54,4.21,4.21,0,0,0,1.56-1.6,5.83,5.83,0,0,0,0-5.15,4.35,4.35,0,0,0-1.56-1.62,3.93,3.93,0,0,0-2-.57,4.17,4.17,0,0,0-2,.55,4.32,4.32,0,0,0-1.58,1.62,5,5,0,0,0-.62,2.6,5.17,5.17,0,0,0,.6,2.57,4.14,4.14,0,0,0,1.59,1.6A4.2,4.2,0,0,0,122.49,59.49Z"/><path class="cls-1" d="M136.05,55.75h1.85a3.83,3.83,0,0,0,.65,1.92A3.91,3.91,0,0,0,140.11,59a5.16,5.16,0,0,0,2.33.49,4.89,4.89,0,0,0,1.95-.35,2.59,2.59,0,0,0,1.18-1,2.52,2.52,0,0,0,.4-1.43,2.14,2.14,0,0,0-.41-1.36,3.28,3.28,0,0,0-1.19-.87,14.23,14.23,0,0,0-1.83-.69c-.67-.21-1.35-.45-2-.72a9.7,9.7,0,0,1-1.92-1,4.73,4.73,0,0,1-1.43-1.42,3.59,3.59,0,0,1-.54-2,4,4,0,0,1,.63-2.16,4.57,4.57,0,0,1,1.85-1.64,6.39,6.39,0,0,1,3-.63,5.23,5.23,0,0,1,4,1.46,5.34,5.34,0,0,1,1.29,3.87h-1.86a3.27,3.27,0,0,0-1-2.62,4,4,0,0,0-2.55-.79,4.27,4.27,0,0,0-2.29.6,2,2,0,0,0-1,1.88,2.07,2.07,0,0,0,.22,1,2.18,2.18,0,0,0,.72.78,6.5,6.5,0,0,0,1.36.71q.87.34,2.13.75c.55.17,1.11.38,1.69.62a7.8,7.8,0,0,1,1.6.89,4.12,4.12,0,0,1,1.18,1.37,4.37,4.37,0,0,1,.45,2.09,4.48,4.48,0,0,1-.58,2.24,4.26,4.26,0,0,1-1.8,1.68,6.78,6.78,0,0,1-3.16.64,7.87,7.87,0,0,1-2.82-.45,5.59,5.59,0,0,1-3.6-4.14A2.59,2.59,0,0,1,136.05,55.75Z"/><path class="cls-1" d="M156.33,61.41a6.29,6.29,0,0,1-3.09-.79,6.12,6.12,0,0,1-2.33-2.3,7.51,7.51,0,0,1,0-7.09,6.32,6.32,0,0,1,2.33-2.32,6.11,6.11,0,0,1,3.09-.82,6,6,0,0,1,3.08.82,6.27,6.27,0,0,1,2.31,2.32,7.58,7.58,0,0,1,0,7.09,6.07,6.07,0,0,1-2.31,2.3A6.22,6.22,0,0,1,156.33,61.41Zm0-1.92a4.1,4.1,0,0,0,2-.54,4.21,4.21,0,0,0,1.56-1.6,5.83,5.83,0,0,0,0-5.15,4.35,4.35,0,0,0-1.56-1.62,3.93,3.93,0,0,0-2-.57,4.17,4.17,0,0,0-2.05.55,4.32,4.32,0,0,0-1.58,1.62,5.11,5.11,0,0,0-.62,2.6,5.17,5.17,0,0,0,.6,2.57,4.14,4.14,0,0,0,1.59,1.6A4.2,4.2,0,0,0,156.33,59.49Z"/><path class="cls-1" d="M174.22,55.19l0,.71c0,.21-.07.52-.15,1a8.66,8.66,0,0,1-.38,1.42,6.27,6.27,0,0,1-.77,1.5A4.17,4.17,0,0,1,171.66,61a3.8,3.8,0,0,1-1.95.46,5.49,5.49,0,0,1-1.53-.22,4.31,4.31,0,0,1-1.46-.71,3.51,3.51,0,0,1-1.08-1.4,5.26,5.26,0,0,1-.41-2.23v-8.5h2.06v8a3.6,3.6,0,0,0,.37,1.8,2.15,2.15,0,0,0,1,.94,3.52,3.52,0,0,0,1.44.28,3.46,3.46,0,0,0,2.19-.67,4.39,4.39,0,0,0,1.34-1.63A6,6,0,0,0,174.22,55.19Zm1.93,6h-2.06V48.35h2.06Z"/><path class="cls-1" d="M179.5,48.35h2.07v12.8H179.5Zm6.5-.26a5.18,5.18,0,0,1,1.86.31,3.65,3.65,0,0,1,1.39.89,4.13,4.13,0,0,1,.87,1.43,5.26,5.26,0,0,1,.31,1.88v8.55h-2.06v-8a3.14,3.14,0,0,0-.7-2.23,2.72,2.72,0,0,0-2.08-.74,3.73,3.73,0,0,0-2,.54,4.34,4.34,0,0,0-1.48,1.47,4.93,4.93,0,0,0-.71,2.16l0-1.48a6.5,6.5,0,0,1,.53-1.95,5.34,5.34,0,0,1,1-1.5,4.33,4.33,0,0,1,1.39-1A4.2,4.2,0,0,1,186,48.09Z"/><path class="cls-1" d="M198.65,61.41a5,5,0,0,1-2.82-.86,6,6,0,0,1-2-2.35,7.55,7.55,0,0,1-.75-3.42,7.93,7.93,0,0,1,.72-3.44,6,6,0,0,1,2-2.38,5,5,0,0,1,2.88-.87,4.69,4.69,0,0,1,2.36.53,3.62,3.62,0,0,1,1.41,1.44,7.1,7.1,0,0,1,.68,2.13,16.16,16.16,0,0,1,.19,2.59,12.58,12.58,0,0,1-.2,2.11,8.83,8.83,0,0,1-.71,2.18A4.46,4.46,0,0,1,201,60.76,3.88,3.88,0,0,1,198.65,61.41Zm.52-1.95a3.54,3.54,0,0,0,2.18-.64,3.7,3.7,0,0,0,1.27-1.7,6.32,6.32,0,0,0,.42-2.34,6.74,6.74,0,0,0-.43-2.48,3.58,3.58,0,0,0-1.29-1.66,3.66,3.66,0,0,0-2.15-.6,3.59,3.59,0,0,0-3,1.34,5.9,5.9,0,0,0-.53,5.82,4.1,4.1,0,0,0,1.44,1.66A3.72,3.72,0,0,0,199.17,59.46ZM203,43.22h2.06V61.15h-1.88c0-.37-.08-.82-.12-1.33s-.06-.92-.06-1.23Z"/><path class="cls-1" d="M220.28,56.34a5.47,5.47,0,0,1-3.12,4.47,6.47,6.47,0,0,1-5.82-.19,6.15,6.15,0,0,1-2.34-2.3,7.51,7.51,0,0,1,0-7.09,6.35,6.35,0,0,1,2.34-2.32,6.25,6.25,0,0,1,5.81-.2,5.58,5.58,0,0,1,3.13,4.43H218.4a4.4,4.4,0,0,0-1.52-2.3,3.94,3.94,0,0,0-2.45-.83,4.18,4.18,0,0,0-3.66,2.19,5.18,5.18,0,0,0-.59,2.58,5,5,0,0,0,.59,2.54,4.06,4.06,0,0,0,1.56,1.62,4.12,4.12,0,0,0,2.1.55,3.86,3.86,0,0,0,2.56-.83,4.67,4.67,0,0,0,1.43-2.32Z"/><path class="cls-1" d="M223.17,43.22h2.06V61.15h-2.06Z"/><path class="cls-1" d="M234.43,61.41a6.29,6.29,0,0,1-3.09-.79,6.15,6.15,0,0,1-2.34-2.3,7.58,7.58,0,0,1,0-7.09,6.35,6.35,0,0,1,2.34-2.32,6.11,6.11,0,0,1,3.09-.82,6,6,0,0,1,3.08.82,6.35,6.35,0,0,1,2.31,2.32,7.66,7.66,0,0,1,0,7.09,6.14,6.14,0,0,1-2.31,2.3A6.22,6.22,0,0,1,234.43,61.41Zm0-1.92a4.1,4.1,0,0,0,2-.54,4.21,4.21,0,0,0,1.56-1.6,5.83,5.83,0,0,0,0-5.15,4.35,4.35,0,0,0-1.56-1.62,3.93,3.93,0,0,0-2-.57,4.17,4.17,0,0,0-2.05.55,4.32,4.32,0,0,0-1.58,1.62,5,5,0,0,0-.62,2.6,5.17,5.17,0,0,0,.6,2.57,4.14,4.14,0,0,0,1.59,1.6A4.2,4.2,0,0,0,234.43,59.49Z"/><path class="cls-1" d="M252.32,55.19l0,.71a8,8,0,0,1-.14,1,9.8,9.8,0,0,1-.38,1.42,6,6,0,0,1-.78,1.5A4,4,0,0,1,249.75,61a3.74,3.74,0,0,1-1.94.46,5.62,5.62,0,0,1-1.54-.22,4.26,4.26,0,0,1-1.45-.71,3.51,3.51,0,0,1-1.08-1.4,5.25,5.25,0,0,1-.42-2.23v-8.5h2.06v8a3.6,3.6,0,0,0,.38,1.8,2.15,2.15,0,0,0,1,.94,3.52,3.52,0,0,0,1.44.28,3.46,3.46,0,0,0,2.19-.67,4.49,4.49,0,0,0,1.34-1.63A6,6,0,0,0,252.32,55.19Zm1.93,6h-2.06V48.35h2.06Z"/><path class="cls-1" d="M262.75,61.41a5,5,0,0,1-2.82-.86,6,6,0,0,1-2-2.35,7.55,7.55,0,0,1-.75-3.42,7.93,7.93,0,0,1,.72-3.44,5.9,5.9,0,0,1,2-2.38,5,5,0,0,1,2.88-.87,4.71,4.71,0,0,1,2.36.53,3.62,3.62,0,0,1,1.41,1.44,7.1,7.1,0,0,1,.68,2.13,16.16,16.16,0,0,1,.19,2.59,12.58,12.58,0,0,1-.2,2.11,8.83,8.83,0,0,1-.71,2.18,4.56,4.56,0,0,1-1.41,1.69A3.88,3.88,0,0,1,262.75,61.41Zm.52-1.95a3.56,3.56,0,0,0,2.18-.64,3.7,3.7,0,0,0,1.27-1.7,6.32,6.32,0,0,0,.41-2.34,6.75,6.75,0,0,0-.42-2.48,3.58,3.58,0,0,0-1.29-1.66,3.68,3.68,0,0,0-2.15-.6,3.59,3.59,0,0,0-3,1.34,5.31,5.31,0,0,0-1.06,3.4,5.41,5.41,0,0,0,.53,2.42,4.1,4.1,0,0,0,1.44,1.66A3.7,3.7,0,0,0,263.27,59.46Zm3.86-16.24h2.07V61.15h-1.88c0-.37-.08-.82-.12-1.33s-.07-.92-.07-1.23Z"/></g></g></svg>