<svg xmlns="http://www.w3.org/2000/svg" viewBox="0 0 354.84 50.25"><defs><style>.cls-1{fill:#fff;}</style></defs><title>Asset 24</title><g id="Layer_2" data-name="Layer 2"><g id="Layer_1-2" data-name="Layer 1"><path class="cls-1" d="M.1,27.3h4a8.37,8.37,0,0,0,4.77,7.1A11.43,11.43,0,0,0,14,35.46a10.26,10.26,0,0,0,4.21-.76,5.69,5.69,0,0,0,2.57-2.09,5.62,5.62,0,0,0,.87-3.13,4.58,4.58,0,0,0-.9-3,7,7,0,0,0-2.56-1.89,31.15,31.15,0,0,0-4-1.51c-1.45-.45-2.92-1-4.41-1.57A22.46,22.46,0,0,1,5.6,19.38a10.77,10.77,0,0,1-3.1-3.1,7.92,7.92,0,0,1-1.17-4.39A8.77,8.77,0,0,1,2.7,7.17a10,10,0,0,1,4-3.57,13.8,13.8,0,0,1,6.39-1.37q5.87,0,8.77,3.19a11.67,11.67,0,0,1,2.79,8.43h-4c-.08-2.64-.82-4.54-2.24-5.7a8.46,8.46,0,0,0-5.52-1.73,9.28,9.28,0,0,0-5,1.31,4.49,4.49,0,0,0-2.13,4.11A4.6,4.6,0,0,0,6.27,14a5,5,0,0,0,1.56,1.7,14.8,14.8,0,0,0,3,1.54q1.88.75,4.61,1.64c1.19.38,2.41.82,3.66,1.34a17.27,17.27,0,0,1,3.46,2,8.87,8.87,0,0,1,2.57,3,9.52,9.52,0,0,1,1,4.55,9.85,9.85,0,0,1-1.25,4.88,9.21,9.21,0,0,1-3.91,3.66,14.67,14.67,0,0,1-6.84,1.4,17.15,17.15,0,0,1-6.12-1A12.18,12.18,0,0,1,1.3,32.86,11.51,11.51,0,0,1,.16,29.65,5.55,5.55,0,0,1,.1,27.3Z"/><path class="cls-1" d="M31.93,11.17h4.3L36.39,17V50.25H31.93Zm14,28.48a8.32,8.32,0,0,1-5-1.43,9.67,9.67,0,0,1-3-3.68,18.34,18.34,0,0,1-1.54-4.75,25.92,25.92,0,0,1-.44-4.61,37,37,0,0,1,.41-5.64,15.08,15.08,0,0,1,1.48-4.63,7.86,7.86,0,0,1,3.05-3.16,10.15,10.15,0,0,1,5.11-1.14A10.39,10.39,0,0,1,52,12.51a13.44,13.44,0,0,1,4.39,5.19A16.62,16.62,0,0,1,58,25.18a16.1,16.1,0,0,1-1.67,7.46,13.44,13.44,0,0,1-4.44,5.13A10.49,10.49,0,0,1,45.89,39.65ZM44.77,35.4a8.09,8.09,0,0,0,4.55-1.31,9,9,0,0,0,3.1-3.63,12,12,0,0,0,1.12-5.28,11.73,11.73,0,0,0-2.29-7.4,7.76,7.76,0,0,0-6.48-2.93,7.46,7.46,0,0,0-4.36,1.32,8.63,8.63,0,0,0-2.95,3.62,12.83,12.83,0,0,0-1.07,5.39,13.59,13.59,0,0,0,.93,5.11A8.41,8.41,0,0,0,40.08,34,7.55,7.55,0,0,0,44.77,35.4Z"/><path class="cls-1" d="M83.47,30.1h4.18a11.38,11.38,0,0,1-2,4.88,10.79,10.79,0,0,1-4,3.41,12.48,12.48,0,0,1-5.72,1.26,13.42,13.42,0,0,1-12-7,15.12,15.12,0,0,1-1.82-7.46,15.67,15.67,0,0,1,1.76-7.48,13.43,13.43,0,0,1,4.83-5.19,12.89,12.89,0,0,1,6.93-1.9,12.47,12.47,0,0,1,6.89,1.81,10.74,10.74,0,0,1,4.19,5.31,20.41,20.41,0,0,1,1.09,8.57H66.6a11.59,11.59,0,0,0,1.51,4.8,8.75,8.75,0,0,0,3.24,3.21,9,9,0,0,0,4.58,1.15A7.88,7.88,0,0,0,80.76,34,7.44,7.44,0,0,0,83.47,30.1ZM75.82,14.8a8.61,8.61,0,0,0-5.81,2,9.75,9.75,0,0,0-3.13,5.47H83.24a7.71,7.71,0,0,0-2.37-5.58A7.37,7.37,0,0,0,75.82,14.8Z"/><path class="cls-1" d="M118.36,28.59a12.21,12.21,0,0,1-2.2,5.95,12,12,0,0,1-4.55,3.79A13.85,13.85,0,0,1,99,37.91a13.31,13.31,0,0,1-5.06-5A15,15,0,0,1,92,25.18a15,15,0,0,1,1.92-7.73,13.69,13.69,0,0,1,5.06-5,13.29,13.29,0,0,1,6.7-1.79A13.16,13.16,0,0,1,111.58,12a12.23,12.23,0,0,1,6.78,9.66h-4.07a9.6,9.6,0,0,0-3.3-5,8.42,8.42,0,0,0-5.3-1.81A8.85,8.85,0,0,0,101.17,16a9,9,0,0,0-3.41,3.54,11.4,11.4,0,0,0-1.28,5.61,11.28,11.28,0,0,0,1.28,5.56,8.86,8.86,0,0,0,7.93,4.72,8.3,8.3,0,0,0,5.55-1.82,10.06,10.06,0,0,0,3.1-5.05Z"/><path class="cls-1" d="M129.59,0V5.42h-5.81V0Zm-5.14,11.17h4.47V39.09h-4.47Z"/><path class="cls-1" d="M147.12,39.65a10.56,10.56,0,0,1-6.06-1.88,13.21,13.21,0,0,1-4.41-5.13A16.34,16.34,0,0,1,135,25.18a16.24,16.24,0,0,1,1.68-7.48,13.15,13.15,0,0,1,4.55-5.19,11.43,11.43,0,0,1,6.45-1.9,8.22,8.22,0,0,1,5.95,2,10.5,10.5,0,0,1,2.79,5.28,33,33,0,0,1,.75,7.31,26,26,0,0,1-.45,4.61,18.32,18.32,0,0,1-1.53,4.75,9.76,9.76,0,0,1-3,3.68A8.34,8.34,0,0,1,147.12,39.65Zm1.12-4.25A7.68,7.68,0,0,0,153,34a8.26,8.26,0,0,0,2.76-3.72,14.2,14.2,0,0,0,.89-5.11,14.46,14.46,0,0,0-.92-5.39,7.77,7.77,0,0,0-2.79-3.62,7.89,7.89,0,0,0-4.66-1.32,7.75,7.75,0,0,0-6.48,2.93,11.67,11.67,0,0,0-2.29,7.4,11.78,11.78,0,0,0,1.14,5.28,9.19,9.19,0,0,0,3.13,3.63A8,8,0,0,0,148.24,35.4Zm8.37-24.23h4.47V39.09H157c-.11-1.34-.2-2.46-.28-3.35s-.11-1.64-.11-2.24Z"/><path class="cls-1" d="M168.9,0h4.46V39.09H168.9Z"/><path class="cls-1" d="M191,11.17h16.42v4.19H191Zm6-7.26h4.46V39.09h-4.46Z"/><path class="cls-1" d="M213.34,39.09V0h4.47V39.09Zm19.21,0V21.55a8.41,8.41,0,0,0-.67-3.6,4.61,4.61,0,0,0-2-2.15,7,7,0,0,0-3.35-.72,8.08,8.08,0,0,0-4.24,1.17,9.3,9.3,0,0,0-3.21,3.21,11.07,11.07,0,0,0-1.54,4.72l-.05-3.24a13.92,13.92,0,0,1,1.14-4.24,11.54,11.54,0,0,1,2.18-3.27,9,9,0,0,1,6.61-2.82,11.39,11.39,0,0,1,4,.67,8.08,8.08,0,0,1,3,2,8.93,8.93,0,0,1,1.9,3.1,11.73,11.73,0,0,1,.67,4.11V39.09Z"/><path class="cls-1" d="M254.83,39.65a10.56,10.56,0,0,1-6.06-1.88,13.21,13.21,0,0,1-4.41-5.13,16.34,16.34,0,0,1-1.65-7.46,16.24,16.24,0,0,1,1.68-7.48,13.23,13.23,0,0,1,4.55-5.19,11.43,11.43,0,0,1,6.45-1.9,8.22,8.22,0,0,1,5.95,2,10.42,10.42,0,0,1,2.79,5.28,33,33,0,0,1,.75,7.31,26,26,0,0,1-.45,4.61,18,18,0,0,1-1.53,4.75,9.76,9.76,0,0,1-3,3.68A8.34,8.34,0,0,1,254.83,39.65ZM256,35.4A7.68,7.68,0,0,0,260.67,34a8.26,8.26,0,0,0,2.76-3.72,14.2,14.2,0,0,0,.89-5.11,14.46,14.46,0,0,0-.92-5.39,7.77,7.77,0,0,0-2.79-3.62A7.89,7.89,0,0,0,256,14.85a7.76,7.76,0,0,0-6.48,2.93,11.67,11.67,0,0,0-2.29,7.4,11.65,11.65,0,0,0,1.15,5.28,9.09,9.09,0,0,0,3.12,3.63A8,8,0,0,0,256,35.4Zm8.37-24.23h4.47V39.09h-4.08c-.11-1.34-.2-2.46-.28-3.35s-.11-1.64-.11-2.24Z"/><path class="cls-1" d="M276.05,11.17h4.47V39.09h-4.47Zm14.07-.56a11.3,11.3,0,0,1,4,.67,8.12,8.12,0,0,1,3,2,8.91,8.91,0,0,1,1.89,3.1,11.73,11.73,0,0,1,.67,4.11V39.09h-4.46V21.55a6.91,6.91,0,0,0-1.51-4.85,5.89,5.89,0,0,0-4.52-1.62A8.14,8.14,0,0,0,285,16.25a9.48,9.48,0,0,0-3.21,3.21,10.92,10.92,0,0,0-1.53,4.72l-.06-3.24a14.21,14.21,0,0,1,1.15-4.24,11.51,11.51,0,0,1,2.17-3.27,9.24,9.24,0,0,1,3-2.1A9.11,9.11,0,0,1,290.12,10.61Z"/><path class="cls-1" d="M307.65,0h4.47V39.09h-4.47Zm23.12,11.17L316.81,25l.11-2.9,14.8,17H326L312.23,23.51,324.4,11.17Z"/><path class="cls-1" d="M334.57,30.1h4.13A5.61,5.61,0,0,0,340.51,34a6.87,6.87,0,0,0,4.78,1.5,7.15,7.15,0,0,0,3-.5,3.41,3.41,0,0,0,1.6-1.37,3.79,3.79,0,0,0,.5-1.92,3.08,3.08,0,0,0-.64-2A5.13,5.13,0,0,0,348,28.42a23.8,23.8,0,0,0-2.49-1c-1.08-.41-2.19-.84-3.32-1.31A17.77,17.77,0,0,1,339,24.49a8,8,0,0,1-2.38-2.41,6.37,6.37,0,0,1-.89-3.43,7.45,7.45,0,0,1,.67-3.15,7.35,7.35,0,0,1,1.93-2.57,9.15,9.15,0,0,1,3-1.71,11.08,11.08,0,0,1,3.77-.61,9.21,9.21,0,0,1,4.72,1.12,7.39,7.39,0,0,1,3,3.15,10.83,10.83,0,0,1,1.09,4.72H350a6.27,6.27,0,0,0-1.59-3.66A4.81,4.81,0,0,0,345,14.8a5.45,5.45,0,0,0-3.52,1,3.31,3.31,0,0,0-1.22,2.68,2.62,2.62,0,0,0,.89,2A8.8,8.8,0,0,0,343.42,22c.95.43,2,.87,3,1.31s2.12.9,3.13,1.35a12.91,12.91,0,0,1,2.68,1.56,6.73,6.73,0,0,1,1.87,2.2,7,7,0,0,1,.7,3.27,8,8,0,0,1-1.09,4.16,7.28,7.28,0,0,1-3.19,2.82,11.72,11.72,0,0,1-5.11,1,13.9,13.9,0,0,1-4.66-.7,9.81,9.81,0,0,1-3.21-1.85,8.94,8.94,0,0,1-2-2.42,8.4,8.4,0,0,1-.92-2.52A6.55,6.55,0,0,1,334.57,30.1Z"/></g></g></svg>