<svg xmlns="http://www.w3.org/2000/svg" viewBox="0 0 221.84 39.65"><defs><style>.cls-1{fill:#fff;}</style></defs><title>Asset 25</title><g id="Layer_2" data-name="Layer 2"><g id="Layer_1-2" data-name="Layer 1"><path class="cls-1" d="M0,11.17H4.47V39.09H0Zm14.07-.56a11.3,11.3,0,0,1,4,.67,8.12,8.12,0,0,1,3,2A8.91,8.91,0,0,1,23,16.33a11.73,11.73,0,0,1,.67,4.11V39.09H19.21V21.55A6.86,6.86,0,0,0,17.7,16.7a5.87,5.87,0,0,0-4.52-1.62,8.14,8.14,0,0,0-4.25,1.17,9.48,9.48,0,0,0-3.21,3.21,11.06,11.06,0,0,0-1.53,4.72l-.06-3.24A14.21,14.21,0,0,1,5.28,16.7a11.51,11.51,0,0,1,2.17-3.27,9.24,9.24,0,0,1,3-2.1A9.11,9.11,0,0,1,14.07,10.61Zm18.76,0a11.3,11.3,0,0,1,4,.67,8.12,8.12,0,0,1,3,2,8.93,8.93,0,0,1,1.9,3.1,12,12,0,0,1,.67,4.11V39.09H38V21.55a6.86,6.86,0,0,0-1.51-4.85,5.87,5.87,0,0,0-4.52-1.62,8.08,8.08,0,0,0-4.24,1.17,9.3,9.3,0,0,0-3.21,3.21A10.93,10.93,0,0,0,23,24.18l-.06-3.24A14.21,14.21,0,0,1,24,16.7a11.54,11.54,0,0,1,2.18-3.27,9,9,0,0,1,6.61-2.82Z"/><path class="cls-1" d="M69.46,30.1h4.19a11.51,11.51,0,0,1-2,4.88,11,11,0,0,1-4,3.41,12.52,12.52,0,0,1-5.73,1.26,13.42,13.42,0,0,1-12-7,15.12,15.12,0,0,1-1.82-7.46,15.67,15.67,0,0,1,1.76-7.48,13.28,13.28,0,0,1,4.83-5.19,12.89,12.89,0,0,1,6.93-1.9,12.47,12.47,0,0,1,6.89,1.81,10.74,10.74,0,0,1,4.19,5.31,20.58,20.58,0,0,1,1.09,8.57H52.6a11.59,11.59,0,0,0,1.51,4.8,8.75,8.75,0,0,0,3.24,3.21,9,9,0,0,0,4.57,1.15A7.88,7.88,0,0,0,66.75,34,7.33,7.33,0,0,0,69.46,30.1ZM61.81,14.8a8.58,8.58,0,0,0-5.8,2,9.75,9.75,0,0,0-3.13,5.47H69.24a7.71,7.71,0,0,0-2.37-5.58A7.39,7.39,0,0,0,61.81,14.8Z"/><path class="cls-1" d="M90.12,39.65a10.61,10.61,0,0,1-6.06-1.88,13.21,13.21,0,0,1-4.41-5.13A16.34,16.34,0,0,1,78,25.18a16.24,16.24,0,0,1,1.67-7.48,13.23,13.23,0,0,1,4.55-5.19,11.43,11.43,0,0,1,6.45-1.9,8.2,8.2,0,0,1,5.95,2,10.35,10.35,0,0,1,2.79,5.28,33,33,0,0,1,.75,7.31,26.89,26.89,0,0,1-.44,4.61,18.34,18.34,0,0,1-1.54,4.75,9.76,9.76,0,0,1-3,3.68A8.34,8.34,0,0,1,90.12,39.65Zm1.12-4.25A7.68,7.68,0,0,0,96,34a8.19,8.19,0,0,0,2.76-3.72,14,14,0,0,0,.9-5.11,14.46,14.46,0,0,0-.93-5.39,7.77,7.77,0,0,0-2.79-3.62,7.89,7.89,0,0,0-4.66-1.32,7.76,7.76,0,0,0-6.48,2.93,11.73,11.73,0,0,0-2.29,7.4,11.65,11.65,0,0,0,1.15,5.28,9.09,9.09,0,0,0,3.12,3.63A8,8,0,0,0,91.24,35.4Zm8.38-24.23h4.46V39.09H100c-.12-1.34-.21-2.46-.28-3.35s-.11-1.64-.11-2.24Z"/><path class="cls-1" d="M111.34,11.17h4.47V39.09h-4.47Zm14.07-.56a11.3,11.3,0,0,1,4,.67,8.12,8.12,0,0,1,3,2,8.93,8.93,0,0,1,1.9,3.1,12,12,0,0,1,.67,4.11V39.09h-4.47V21.55A6.86,6.86,0,0,0,129,16.7a5.87,5.87,0,0,0-4.52-1.62,8.14,8.14,0,0,0-4.25,1.17,9.48,9.48,0,0,0-3.21,3.21,11.06,11.06,0,0,0-1.53,4.72l-.06-3.24a14.21,14.21,0,0,1,1.15-4.24,11.51,11.51,0,0,1,2.17-3.27,9,9,0,0,1,6.62-2.82Z"/><path class="cls-1" d="M147.8,0V5.42H142V0Zm-5.13,11.17h4.46V39.09h-4.46Z"/><path class="cls-1" d="M153.44,30.1h4.14A5.61,5.61,0,0,0,159.39,34a6.86,6.86,0,0,0,4.77,1.5,7.2,7.2,0,0,0,3-.5,3.34,3.34,0,0,0,1.59-1.37,3.7,3.7,0,0,0,.51-1.92,3,3,0,0,0-.65-2,5,5,0,0,0-1.73-1.26,22.75,22.75,0,0,0-2.48-1c-1.08-.41-2.19-.84-3.33-1.31a18.48,18.48,0,0,1-3.18-1.67,8,8,0,0,1-2.37-2.41,6.28,6.28,0,0,1-.89-3.43,7.45,7.45,0,0,1,.67-3.15,7.21,7.21,0,0,1,1.92-2.57,9.3,9.3,0,0,1,3-1.71,11,11,0,0,1,3.77-.61,9.24,9.24,0,0,1,4.72,1.12,7.45,7.45,0,0,1,3,3.15,10.83,10.83,0,0,1,1.09,4.72h-3.86a6.27,6.27,0,0,0-1.59-3.66,4.78,4.78,0,0,0-3.43-1.14,5.43,5.43,0,0,0-3.52,1,3.29,3.29,0,0,0-1.23,2.68,2.63,2.63,0,0,0,.9,2A8.73,8.73,0,0,0,162.29,22c1,.43,2,.87,3.05,1.31s2.12.9,3.12,1.35a12.66,12.66,0,0,1,2.68,1.56,6.5,6.5,0,0,1,1.87,2.2,6.88,6.88,0,0,1,.7,3.27,7.9,7.9,0,0,1-1.09,4.16,7.2,7.2,0,0,1-3.18,2.82,11.75,11.75,0,0,1-5.11,1,13.86,13.86,0,0,1-4.66-.7,9.61,9.61,0,0,1-3.21-1.85,8.94,8.94,0,0,1-2-2.42,8.44,8.44,0,0,1-.93-2.52A7.21,7.21,0,0,1,153.44,30.1Z"/><path class="cls-1" d="M179.41,11.17h4.46V39.09h-4.46Zm14.07-.56a11.3,11.3,0,0,1,4,.67,8.08,8.08,0,0,1,3,2,8.79,8.79,0,0,1,1.9,3.1,11.73,11.73,0,0,1,.67,4.11V39.09h-4.46V21.55a6.91,6.91,0,0,0-1.51-4.85,5.91,5.91,0,0,0-4.53-1.62,8.11,8.11,0,0,0-4.24,1.17,9.48,9.48,0,0,0-3.21,3.21,11.07,11.07,0,0,0-1.54,4.72l-.05-3.24a14.21,14.21,0,0,1,1.14-4.24,11.75,11.75,0,0,1,2.18-3.27,9.24,9.24,0,0,1,3-2.1A9.11,9.11,0,0,1,193.48,10.61Zm18.76,0a11.3,11.3,0,0,1,4,.67,8.12,8.12,0,0,1,3,2,8.91,8.91,0,0,1,1.89,3.1,11.73,11.73,0,0,1,.67,4.11V39.09h-4.46V21.55a6.86,6.86,0,0,0-1.51-4.85,5.89,5.89,0,0,0-4.52-1.62,8.14,8.14,0,0,0-4.25,1.17,9.48,9.48,0,0,0-3.21,3.21,10.92,10.92,0,0,0-1.53,4.72l-.06-3.24a14.21,14.21,0,0,1,1.15-4.24,11.51,11.51,0,0,1,2.17-3.27,9.24,9.24,0,0,1,3-2.1A9.11,9.11,0,0,1,212.24,10.61Z"/></g></g></svg>