<svg xmlns="http://www.w3.org/2000/svg" viewBox="0 0 2097.69 3458.77"><title>Asset 20</title><g id="Layer_2" data-name="Layer 2"><g id="Layer_1-2" data-name="Layer 1"><path d="M61.54,6.15H248.8q61.53,0,61.55,42.2,0,15-12.31,37.37t-24.62,55.39q-12.32,33-12.31,72.53,0,50.12,6.6,91.43t13.18,62.42q6.6,21.11,6.6,22.86,0,7.92-27.26,7.91-28.14,0-28.13-7,0-.87,3.52-24.18T242.21,295q3.07-48.79,3.08-113,0-80.88-6.6-120T212.76,22.86q-12.33,0-16.71,10.11t-7.91,38.24q-5.26,45.72-5.27,339.36,0,316.5,12.3,359.58a44.64,44.64,0,0,0,15,23.74q11.41,9.68,11.43,14.06v7H88.8v-7q0-4.38,11.42-14.06a44.76,44.76,0,0,0,15-23.74q12.3-43.06,12.31-359.58,0-293.62-5.28-339.36-1.77-15.82-3.07-21.54c-.88-3.8-2.2-8.35-4-13.62s-4-8.8-6.59-10.55-6.31-2.64-11-2.64q-19.35,0-26.38,39.56T64.18,182q0,64.19,3.08,113t6.59,72.09c2.33,15.54,3.52,23.6,3.52,24.18q0,7-27.26,7t-27.25-7.91q0-1.75,6.59-22.86t13.19-62.42q6.6-41.31,6.59-91.43,0-39.57-12.31-72.53T12.31,85.72Q0,63.29,0,48.35,0,6.15,61.54,6.15Z"/><path d="M301.54,6.15H433.42v7q0,4.41-11.43,14.06A44.66,44.66,0,0,0,407,51q-12.32,43.1-12.31,359.58T407,770.15A44.58,44.58,0,0,0,422,793.89q11.42,9.68,11.43,14.06v7H301.54v-7q0-4.38,11.43-14.06a44.76,44.76,0,0,0,14.95-23.74q12.3-43.06,12.3-359.58T327.92,51A44.84,44.84,0,0,0,313,27.25q-11.43-9.66-11.43-14.06Z"/><path d="M500.22,6.15q68.58,0,68.58,13.19,0,5.28-3.08,22.42t-3.08,47q0,71.21,15.83,321.77,16.68,265.53,24.61,325.29.87,13.18,5.28,13.19t5.27-17.58l44-596.08q2.64-27.24,2.64-46.59,0-27.24-4.4-47t-4.39-22.42q0-13.18,59.78-13.19,68.58,0,68.58,11.43,0,6.17-10.55,33a162.76,162.76,0,0,0-11.43,55q-5.28,274.31-5.28,305.07,0,316.5,12.31,359.58a44.58,44.58,0,0,0,14.95,23.74q11.41,9.68,11.43,14.06v7H658.47v-7q0-4.38,11.43-14.06a44.76,44.76,0,0,0,15-23.74q12.3-43.06,12.31-359.58,0-248.79-5.28-333.2,0-8.79-7-8.8-6.17,0-7.92,19.35L637.37,623.33q-6.17,74.73-6.15,116,0,21.11,1.32,40t1.32,19.78q0,15.83-43.08,15.83-49.24,0-49.24-15.83,0-81.76-21.1-388.59Q501.09,127.49,493.19,80q-1.77-11.41-8.79-11.43-6.16,0-6.16,20.23V665.53q0,44,6.6,73t14.06,39.12q7.47,10.13,14.07,17.59T519.56,808v7H429.89v-7q0-2.62,7.91-13.62t16.27-42.64q8.34-31.65,8.35-86.16V193.42q0-58.89-7.47-97.59T440.44,40.44q-7.05-16.69-7-22.86Q433.41,6.17,500.22,6.15Z"/><path d="M909,0q45.71,0,76.49,25.94t30.77,59.34q0,15.82-11,29.89a237.5,237.5,0,0,0-22,34.73q-11,20.67-11,53.19,0,44,6.59,77.8t13.19,50.56q6.58,16.71,6.59,18.46,0,7.9-27.25,7.91t-27.26-7c0-.58,1.17-7,3.52-19.34s4.53-32.38,6.59-60.23,3.08-60.8,3.08-98.9Q957.39,17.6,909,17.58q-59.81,0-59.79,189.9,0,186.41,65.06,186.39,30.77,0,52.75-4.4l21.1-5.27q7,0,7,26.37t-7,26.38q-2.64,0-10.55-2.64t-24.17-4.84a300.6,300.6,0,0,0-39.13-2.2q-65.07,0-65.06,186.39,0,189.9,59.79,189.9,48.33,0,48.35-154.74,0-57.14-3.08-98.9t-6.59-60.22q-3.53-18.46-3.52-19.35,0-7,27.26-7t27.25,7.91q0,1.77-6.59,18.47t-13.19,50.55q-6.58,33.86-6.59,77.8,0,32.54,11,53.19a236.43,236.43,0,0,0,22,34.73q11,14.07,11,29.89,0,33.42-30.77,59.35T909,821.14q-58.92,0-91-52.31T786,613.66Q786,415,890.58,415h19.34c2.92,0,4.39-1.46,4.39-4.4s-1.47-4.4-4.39-4.4H890.58q-104.64,0-104.63-198.69Q786,104.63,818,52.31T909,0Z"/><path d="M97.59,893.71q18.47-14.51,44-14.5t43.95,14.5q18.47,14.5,35.61,54.95t26.38,126.16q9.22,85.73,9.23,215t-9.23,215q-9.24,85.71-26.38,126.16t-35.61,54.94q-18.45,14.51-43.95,14.51t-44-14.51Q79.13,1671.34,62,1630.9T35.61,1504.74q-9.24-85.73-9.23-215t9.23-215Q44.83,989.11,62,948.66T97.59,893.71Zm68.13,14.95q-8.35-11.86-24.17-11.87t-24.62,11.87q-8.81,11.87-15.39,52.31t-9.23,118.69q-2.64,78.25-2.64,210.12t2.64,210.12q2.64,78.25,9.23,118.69t15.39,52.31q8.77,11.86,24.62,11.87t24.17-11.87q8.35-11.87,15.39-52.75t9.23-118.25q2.17-77.36,2.2-210.12t-2.2-210.12q-2.21-77.36-9.23-118.25T165.72,908.66Z"/><path d="M451,1230q0-.87,3.08-19.79t6.59-63.3q3.51-44.39,3.52-105.94,0-138.9-63.3-138.9-36.06,0-48.35,48.35-7.05,30.78-7,337.6,28.13,4.41,42.2,5.27,0-40.43-4.39-70.77T375,1178.13q-4-14.06-4-15.83,0-7.92,23.74-7.91,24.6,0,24.61,7.91,0,1.77-4.39,15.83t-8.79,44.39q-4.41,30.33-4.4,70.77a69.72,69.72,0,0,0,29-8.35q14.06-7.45,14.95-7.47,7.9,0,7.91,22.86,0,22-7.91,22-.89,0-14.95-7.48a70.32,70.32,0,0,0-29-8.35q0,40.45,4.4,70.78t8.79,44.39q4.38,14.08,4.39,15.83,0,7.9-24.61,7.91-23.75,0-23.74-7.91,0-1.76,4-15.83t8.35-44.39q4.38-30.33,4.39-70.78-14.07.88-42.2,5.28,0,298,12.31,337.6a44.58,44.58,0,0,0,14.95,23.74q11.42,9.68,11.43,14.06v7H252.32v-7q0-4.38,11.43-14.06a44.76,44.76,0,0,0,14.95-23.74Q291,1606.3,291,1289.78T278.7,930.2a44.84,44.84,0,0,0-14.95-23.74q-11.43-9.66-11.43-14.06v-7H464.2q62.42,0,62.42,42.2,0,15-11.87,34.73A397.1,397.1,0,0,0,491,1009.76q-11.88,27.71-11.87,62.87,0,45.72,6.59,82.2t13.19,54.5q6.58,18,6.59,19.79,0,7.91-27.25,7.91T451,1230Z"/><path d="M135.39,1758.42q51,0,84.4,25.49t33.41,59.79q0,15.83-11,29.89a238.74,238.74,0,0,0-22,34.72q-11,20.67-11,53.19,0,44,6.59,77.81T229,2089.86q6.6,16.71,6.6,18.47,0,7.9-25.5,7.91-29,0-29-7c0-.57,1.17-7,3.52-19.34s4.53-32.38,6.59-60.22,3.08-60.8,3.08-98.91q0-154.73-58.91-154.73-58,0-58,110.78,0,58.9,26.81,135.83t58.47,139.78q31.65,62.88,58.46,138T247.92,2431q0,74.73-32.52,111.65t-88.8,36.93q-50.11,0-84-25.5T8.79,2494.28q0-15.83,10.55-29.89a268,268,0,0,0,21.54-34.73q11-20.64,11-53.19,0-43.95-6.59-77.8t-13.19-50.56q-6.6-16.68-6.59-18.46,0-7.91,26.37-7.91,28.13,0,28.13,7,0,.89-3.07,19.34t-6.6,60.23q-3.52,41.76-3.51,98.9,0,78.27,16.26,116.49T126.6,2562q57.14,0,57.15-110.78,0-49.23-17.59-106.38a855.45,855.45,0,0,0-42.2-109.9Q99.35,2182.18,74.29,2129a805.3,805.3,0,0,1-42.64-111.66Q14.06,1958.88,14.07,1907q0-74.71,32.53-111.66T135.39,1758.42Z"/><path d="M326.17,1772.92q18.46-14.51,44-14.5t44,14.5q18.46,14.5,35.61,54.95T476.07,1954q9.24,85.73,9.23,215t-9.23,215q-9.22,85.72-26.37,126.16t-35.61,55q-18.46,14.5-44,14.51t-44-14.51q-18.45-14.51-35.6-55t-26.38-126.16Q255,2298.23,255,2169t9.23-215q9.24-85.71,26.38-126.16T326.17,1772.92Zm68.14,14.95Q385.94,1776,370.13,1776t-24.62,11.87q-8.79,11.87-15.38,52.31t-9.23,118.69q-2.64,78.26-2.64,210.12t2.64,210.12q2.64,78.26,9.23,118.69t15.38,52.31Q354.3,2562,370.13,2562t24.18-11.87q8.34-11.88,15.38-52.75t9.23-118.25q2.19-77.36,2.2-210.12t-2.2-210.12q-2.19-77.36-9.23-118.25T394.31,1787.87Z"/><path d="M547.73,1764.57q68.57,0,68.57,13.19,0,5.28-3.08,22.42t-3.07,47q0,71.22,15.82,321.78,16.69,265.52,24.62,325.29.87,13.18,5.27,13.19c2.93,0,4.69-5.85,5.28-17.59l44-596.07q2.63-27.24,2.63-46.6,0-27.24-4.39-47t-4.4-22.42q0-13.18,59.79-13.19,68.57,0,68.57,11.43,0,6.16-10.55,33a163,163,0,0,0-11.43,55Q800,2138.21,800.05,2169q0,316.5,12.3,359.58a44.58,44.58,0,0,0,14.95,23.73q11.41,9.69,11.43,14.07v7H706v-7q0-4.38,11.42-14.07a44.7,44.7,0,0,0,15-23.73q12.3-43.07,12.31-359.58,0-248.79-5.28-333.21c0-5.85-2.35-8.79-7-8.79q-6.17,0-7.91,19.34l-39.56,535.42q-6.17,74.73-6.16,116.05,0,21.09,1.32,40t1.32,19.78q0,15.83-43.08,15.82-49.24,0-49.23-15.82,0-81.76-21.1-388.59-19.35-283.08-27.26-330.57Q538.92,1827,531.9,1827q-6.17,0-6.15,20.22V2424q0,44,6.59,73T546.41,2536q7.46,10.11,14.06,17.58t6.6,12.75v7H477.39v-7c0-1.76,2.64-6.29,7.91-13.63s10.69-21.54,16.27-42.64,8.35-49.81,8.35-86.15V1951.83q0-58.89-7.47-97.58t-14.51-55.39q-7.05-16.69-7-22.86Q480.91,1764.59,547.73,1764.57Z"/><path d="M956.54,1758.42q45.71,0,76.49,25.93t30.77,59.35q0,15.83-11,29.89a237.9,237.9,0,0,0-22,34.72q-11,20.67-11,53.19,0,44,6.59,77.81t13.19,50.55q6.6,16.71,6.6,18.47,0,7.9-27.26,7.91t-27.25-7c0-.57,1.17-7,3.51-19.34s4.54-32.38,6.6-60.22,3.07-60.8,3.07-98.91q0-154.73-48.35-154.73-59.79,0-59.78,189.9,0,186.41,65.06,186.38,30.76,0,52.75-4.39l21.1-5.28q7,0,7,26.38t-7,26.37q-2.64,0-10.55-2.63t-24.18-4.84a298.68,298.68,0,0,0-39.12-2.2q-65.09,0-65.06,186.39,0,189.89,59.78,189.9,48.35,0,48.35-154.74,0-57.13-3.07-98.9t-6.6-60.23q-3.51-18.46-3.51-19.34,0-7,27.25-7t27.26,7.91q0,1.77-6.6,18.46t-13.19,50.56q-6.59,33.84-6.59,77.8,0,32.54,11,53.19a236.43,236.43,0,0,0,22,34.73q11,14.07,11,29.89,0,33.42-30.77,59.34t-76.49,25.94q-58.9,0-91-52.31t-32.09-155.17q0-198.69,104.62-198.7h19.34c2.93,0,4.4-1.45,4.4-4.39s-1.47-4.4-4.4-4.4H938.08q-104.64,0-104.62-198.69,0-102.86,32.09-155.17T956.54,1758.42Z"/><path d="M1136.77,1772.92q18.46-14.51,44-14.5t44,14.5q18.46,14.5,35.6,54.95T1286.67,1954q9.22,85.73,9.23,215t-9.23,215q-9.23,85.72-26.38,126.16t-35.6,55q-18.46,14.5-44,14.51t-44-14.51q-18.46-14.51-35.6-55t-26.38-126.16q-9.22-85.71-9.23-215t9.23-215q9.23-85.71,26.38-126.16T1136.77,1772.92Zm68.14,14.95q-8.37-11.86-24.18-11.87t-24.62,11.87q-8.79,11.87-15.38,52.31t-9.23,118.69q-2.64,78.26-2.64,210.12t2.64,210.12q2.63,78.26,9.23,118.69t15.38,52.31q8.79,11.86,24.62,11.87t24.18-11.87q8.34-11.88,15.38-52.75t9.23-118.25q2.19-77.36,2.2-210.12t-2.2-210.12q-2.2-77.36-9.23-118.25T1204.91,1787.87Z"/><path d="M1354.81,1764.57q65,0,65,13.19,0,2.64-1.31,20.22t-1.32,43.08q0,84.4,28.13,327.93,34.29,299.81,42.2,327.05,3.51,15,7.91,14.94,5.28,0,5.28-20.22V1914q0-40.42-7.92-69.45t-17.58-40q-9.68-11-17.58-19.78t-7.91-13.19v-7h95v7q0,3.53-7,14.51t-14.5,40q-7.49,29-7.48,78.25v481.78q0,58.92,7.48,97.59t14.94,55.39q7.46,16.71,7.47,22.86,0,11.43-67.69,11.42-65.07,0-65.06-13.18,0-2.64,1.76-20.22t1.76-43.08q0-68.58-29.89-327.93-35.18-306-41.32-328.81-3.53-13.18-7.92-13.19-5.27,0-5.27,20.22V2424q0,40.44,7.91,69.45t17.58,40q9.68,11,17.59,19.78t7.91,13.19v7h-95v-7q0-4.38,7-14.95t14.51-40q7.46-29.45,7.47-77.8V1951.83q0-58.89-7.47-97.58T1295,1798.86q-7-16.69-7-22.86Q1288,1764.59,1354.81,1764.57Z"/><path d="M1666.92,1758.42q45.69,0,76.48,25.93t30.77,59.35q0,15.83-11,29.89a238.76,238.76,0,0,0-22,34.72q-11,20.67-11,53.19,0,44,6.59,77.81t13.19,50.55q6.59,16.71,6.59,18.47,0,7.9-27.25,7.91t-27.26-7c0-.57,1.17-7,3.52-19.34s4.53-32.38,6.59-60.22,3.08-60.8,3.08-98.91q0-154.73-48.35-154.73-59.81,0-59.79,189.9,0,186.41,65.06,186.38,30.76,0,52.75-4.39l21.1-5.28q7,0,7,26.38t-7,26.37q-2.64,0-10.55-2.63t-24.18-4.84a298.68,298.68,0,0,0-39.12-2.2q-65.07,0-65.06,186.39,0,189.89,59.79,189.9,48.33,0,48.35-154.74,0-57.13-3.08-98.9t-6.59-60.23q-3.52-18.46-3.52-19.34,0-7,27.26-7t27.25,7.91q0,1.77-6.59,18.46t-13.19,50.56q-6.6,33.84-6.59,77.8,0,32.54,11,53.19a237.28,237.28,0,0,0,22,34.73q11,14.07,11,29.89,0,33.42-30.77,59.34t-76.48,25.94q-58.92,0-91-52.31t-32.09-155.17q0-198.69,104.62-198.7h19.34c2.93,0,4.4-1.45,4.4-4.39s-1.47-4.4-4.4-4.4h-19.34q-104.62,0-104.62-198.69,0-102.86,32.09-155.17T1666.92,1758.42Z"/><path d="M1782.08,1792.7a33.71,33.71,0,0,1,9.67-24.17q9.66-10.1,26.38-10.11,15.81,0,25.49,9.23t9.67,23.3q0,22.86-46.59,86.15-16.73,20.24-22.86,20.23h-4.4c-3.52,0-5.27-1.76-5.27-5.28q0-2.64,7-21.1a110.4,110.4,0,0,0,7-39.56,68.14,68.14,0,0,0-3.07-19.78A64.79,64.79,0,0,1,1782.08,1792.7Z"/><path d="M1979.88,1758.42q51,0,84.4,25.49t33.41,59.79q0,15.83-11,29.89a238.74,238.74,0,0,0-22,34.72q-11,20.67-11,53.19,0,44,6.6,77.81t13.18,50.55q6.6,16.71,6.6,18.47,0,7.9-25.5,7.91-29,0-29-7c0-.57,1.17-7,3.52-19.34s4.53-32.38,6.59-60.22,3.08-60.8,3.08-98.91q0-154.73-58.91-154.73-58,0-58,110.78,0,58.9,26.81,135.83t58.47,139.78q31.65,62.88,58.46,138T2092.42,2431q0,74.73-32.53,111.65t-88.8,36.93q-50.11,0-84-25.5t-33.85-59.78q0-15.83,10.55-29.89a266.94,266.94,0,0,0,21.54-34.73q11-20.64,11-53.19,0-43.95-6.59-77.8t-13.19-50.56q-6.6-16.68-6.59-18.46,0-7.91,26.37-7.91,28.13,0,28.14,7c0,.59-1,7-3.08,19.34s-4.26,32.39-6.6,60.23-3.51,60.81-3.51,98.9q0,78.27,16.26,116.49t43.52,38.25q57.14,0,57.15-110.78,0-49.23-17.59-106.38a854,854,0,0,0-42.2-109.9q-24.62-52.74-49.67-105.93a806.57,806.57,0,0,1-42.64-111.66q-17.6-58.45-17.58-110.33,0-74.71,32.53-111.66T1979.88,1758.42Z"/><path d="M135.39,2637.63q51,0,84.4,25.49t33.41,59.78q0,15.82-11,29.9a238.74,238.74,0,0,0-22,34.72q-11,20.67-11,53.19,0,44,6.59,77.81T229,2969.07q6.6,16.71,6.6,18.46,0,7.92-25.5,7.92-29,0-29-7,0-.87,3.52-19.34t6.59-60.22q3.08-41.74,3.08-98.91,0-154.72-58.91-154.73-58,0-58,110.77,0,58.92,26.81,135.83t58.47,139.79q31.65,62.87,58.46,138t26.81,130.56q0,74.73-32.52,111.65t-88.8,36.93q-50.11,0-84-25.5T8.79,3373.49q0-15.82,10.55-29.89a268,268,0,0,0,21.54-34.73q11-20.65,11-53.19,0-43.95-6.59-77.81t-13.19-50.55q-6.6-16.7-6.59-18.46,0-7.92,26.37-7.91Q80,3101,80,3108q0,.89-3.07,19.34t-6.6,60.22q-3.52,41.77-3.51,98.91,0,78.26,16.26,116.49t43.52,38.24q57.14,0,57.15-110.77,0-49.23-17.59-106.38a855.45,855.45,0,0,0-42.2-109.9q-24.61-52.74-49.67-105.94a804.69,804.69,0,0,1-42.64-111.65q-17.59-58.45-17.58-110.34,0-74.72,32.53-111.65T135.39,2637.63Z"/><path d="M383.31,2637.63q45.7,0,76.49,25.93t30.77,59.34q0,15.82-11,29.9a239.6,239.6,0,0,0-22,34.72q-11,20.67-11,53.19,0,44,6.59,77.81t13.19,50.55q6.59,16.71,6.59,18.46,0,7.92-27.25,7.92t-27.26-7q0-.87,3.52-19.34t6.59-60.22q3.07-41.74,3.08-98.91,0-154.72-48.36-154.73-59.79,0-59.78,189.9,0,186.39,65.06,186.38,30.77,0,52.75-4.39l21.1-5.28q7,0,7,26.38t-7,26.37q-2.64,0-10.55-2.64t-24.18-4.83a298.68,298.68,0,0,0-39.12-2.2q-65.07,0-65.06,186.38,0,189.9,59.78,189.9,48.35,0,48.36-154.73,0-57.13-3.08-98.91T422,3127.32q-3.53-18.46-3.52-19.34,0-7,27.26-7t27.25,7.91q0,1.77-6.59,18.46t-13.19,50.55q-6.6,33.86-6.59,77.81,0,32.54,11,53.19a238.11,238.11,0,0,0,22,34.73q11,14.07,11,29.89,0,33.42-30.77,59.34t-76.49,25.94q-58.9,0-91-52.31t-32.09-155.18q0-198.68,104.62-198.69h19.34c2.93,0,4.4-1.45,4.4-4.39s-1.47-4.4-4.4-4.4H364.85q-104.62,0-104.62-198.69,0-102.87,32.09-155.17T383.31,2637.63Z"/><path d="M481.78,2643.78H613.66v7q0,4.41-11.43,14.07a44.62,44.62,0,0,0-15,23.74Q575,2731.7,575,3048.2q0,213.63,1.32,267.7t5.72,71.65q10.54,48.36,43.07,48.36,62.42,0,62.43-138.91,0-61.53-3.52-105.94t-6.59-63.3c-2.07-12.6-3.08-19.19-3.08-19.78q0-7,27.25-7t27.26,7.91q0,1.77-6.6,19.78T709,3183.15q-6.59,36.49-6.59,82.2,0,35.18,11.87,62.86a397.23,397.23,0,0,0,23.74,47.48q11.87,19.77,11.87,34.72,0,42.21-61.55,42.2H481.78v-7q0-4.39,11.43-14.07a44.69,44.69,0,0,0,15-23.74q12.3-43.07,12.3-359.57t-12.3-359.58a44.8,44.8,0,0,0-15-23.74q-11.43-9.66-11.43-14.07Z"/><path d="M939.82,2988.41c0-.58,1-7.17,3.08-19.78s4.24-33.7,6.59-63.3,3.52-64.91,3.52-105.94q0-138.9-63.3-138.91-36.06,0-48.36,48.36-7.05,30.78-7,337.6,28.13,4.41,42.2,5.27,0-40.42-4.4-70.77t-8.35-44.4q-4-14.05-4-15.82,0-7.92,23.74-7.92,24.6,0,24.62,7.92,0,1.77-4.4,15.82t-8.79,44.4q-4.41,30.33-4.4,70.77a69.81,69.81,0,0,0,29-8.35q14.05-7.46,14.94-7.47,7.92,0,7.92,22.86,0,22-7.92,22-.88,0-14.94-7.47a70.41,70.41,0,0,0-29-8.35q0,40.45,4.4,70.77t8.79,44.4q4.4,14.07,4.4,15.83,0,7.91-24.62,7.91-23.73,0-23.74-7.91,0-1.76,4-15.83t8.35-44.4q4.39-30.33,4.4-70.77-14.07.88-42.2,5.27,0,298,12.31,337.6a44.49,44.49,0,0,0,14.94,23.74Q873,3441.2,873,3445.58v7H741.13v-7q0-4.39,11.43-14.07a44.67,44.67,0,0,0,14.94-23.74q12.3-43.07,12.31-359.57T767.5,2688.62a44.78,44.78,0,0,0-14.94-23.74q-11.44-9.66-11.43-14.07v-7H953q62.41,0,62.42,42.2,0,15-11.87,34.73a396.27,396.27,0,0,0-23.74,47.47Q968,2795.87,968,2831q0,45.72,6.59,82.2t13.19,54.51q6.6,18,6.6,19.78,0,7.92-27.26,7.92T939.82,2988.41Z"/></g></g></svg>