<svg xmlns="http://www.w3.org/2000/svg" viewBox="0 0 1073.88 25.17"><title>Asset 18</title><g id="Layer_2" data-name="Layer 2"><g id="Layer_1-2" data-name="Layer 1"><path d="M16,1C12.28,8.83,8.67,16.65,4.92,24.67l-2.79.27-.27-.43A215.73,215.73,0,0,0,13.21,3.33H4.92c-2.52,0-2.67.35-3.72,2.9H0C.39,4.07.54,2.13.74.46h15Z"/><path d="M166.21,24.59V23.51c4.29-.27,4.53-.47,4.53-3.37V5.27c0-2-.27-2.06-2-2.21l-1.9-.19v-1A32.2,32.2,0,0,0,174,0V20.14c0,2.94.23,3.1,4.57,3.37v1.08Z"/><path d="M199.43,17.54v2.95c0,2.55.16,2.75,3.29,3v1.08h-9.83V23.51c3.29-.27,3.48-.51,3.48-3.06V17.54H186.15V16.38c3.68-5.23,7.67-10.88,11.54-16.26h1.74V15.68h3.8v1.86ZM196.37,4.18c-2.44,3.57-5.15,7.52-7.82,11.5h7.82Z"/><path d="M354.37,19.44c-.5,1.74-1.16,3.72-1.55,5.15h-14.6v-.93c2.13-2.09,4.45-4.37,6.35-6.58,2.44-2.87,4.77-6,4.77-9.33s-1.71-5.08-4.54-5.08c-2.67,0-4.33,2.09-5.34,3.6l-.89-.81,2.21-3.14A7,7,0,0,1,346.08,0a6.34,6.34,0,0,1,6.59,6.7c0,3.29-1.2,5.62-4.88,9.37-1.67,1.74-4.11,4.11-5.77,5.69h7.39c2.09,0,2.67-.19,4-2.63Z"/><path d="M363.12,24.59V23.51c4.3-.27,4.53-.47,4.53-3.37V5.27c0-2-.27-2.06-2-2.21l-1.9-.19v-1A32.35,32.35,0,0,0,370.87,0V20.14c0,2.94.23,3.1,4.57,3.37v1.08Z"/><path d="M528.63,19.44c-.5,1.74-1.16,3.72-1.55,5.15h-14.6v-.93c2.13-2.09,4.46-4.37,6.35-6.58,2.44-2.87,4.77-6,4.77-9.33s-1.71-5.08-4.53-5.08-4.34,2.09-5.35,3.6l-.89-.81L515,2.32A7,7,0,0,1,520.34,0a6.34,6.34,0,0,1,6.59,6.7c0,3.29-1.2,5.62-4.88,9.37-1.67,1.74-4.11,4.11-5.77,5.69h7.39c2.1,0,2.68-.19,4-2.63Z"/><path d="M543.58,0c3.72,0,6.31,2.59,6.31,5.73a4.79,4.79,0,0,1-1.08,3.14,32.18,32.18,0,0,1-3.22,2.48c2.67,1.47,5.31,3.33,5.31,6.7,0,4.53-4.11,7-7.79,7-4.29,0-7.47-2.48-7.47-6.39a4.62,4.62,0,0,1,1.78-3.84,35.82,35.82,0,0,1,3.49-2.4c-2.52-1.47-4.3-3.33-4.3-6.08C536.61,3,539.36,0,543.58,0Zm0,23.78c2.59,0,4.18-1.74,4.18-4.57,0-3.1-2.59-4.61-5.73-6.12a5.93,5.93,0,0,0-3.25,5.31C538.78,22,541,23.78,543.58,23.78Zm-.47-22.46c-2.32,0-3.56,1.78-3.56,3.95,0,2.82,1.9,3.87,4.92,5.46A5.65,5.65,0,0,0,547,5.93C547,2.67,545.13,1.32,543.11,1.32Z"/><path d="M687.59,4.65l1.83-2.44a6.77,6.77,0,0,1,5-2.21c3.52,0,5.85,2.21,5.85,5.15A4.26,4.26,0,0,1,699.06,8a17.1,17.1,0,0,1-2.75,2.09c3.6.77,5.73,3.13,5.73,6,0,6.31-7.44,9-10.19,9a6.24,6.24,0,0,1-4-1.36,1.7,1.7,0,0,1-.58-1.28,2.28,2.28,0,0,1,.89-1.47.72.72,0,0,1,1,0A7.13,7.13,0,0,0,694,23c2.78,0,4.76-2.09,4.76-5.85,0-3.56-2.63-5-5.11-5a10,10,0,0,0-2.6.42l-.27-1.16C694.18,10.38,697,8.83,697,6a3.39,3.39,0,0,0-3.72-3.6c-2.17,0-3.83,1.59-4.84,3.06Z"/><path d="M724,.46l.23.31-1,2.56h-8.9c-.35,2.13-.86,5.15-1.2,7.05a18.1,18.1,0,0,1,4.57-1.12c4.76,0,7.28,3.37,7.28,6.58a8.22,8.22,0,0,1-3.33,6.51,11.92,11.92,0,0,1-6.86,2.71,5.81,5.81,0,0,1-4-1.51c-.54-.51-.69-.82-.62-1.32a2,2,0,0,1,.82-1.32.82.82,0,0,1,1.08,0A6.77,6.77,0,0,0,716.87,23c3.25,0,4.8-2.79,4.8-5.69,0-3.41-2-5.85-6.35-5.85a11.49,11.49,0,0,0-3.87.7l-.12-.16c.59-3,1.44-8.48,1.86-11.58Z"/><path d="M873.82,17.54v2.95c0,2.55.16,2.75,3.3,3v1.08h-9.84V23.51c3.29-.27,3.48-.51,3.48-3.06V17.54H860.54V16.38c3.68-5.23,7.67-10.88,11.54-16.26h1.74V15.68h3.8v1.86ZM870.76,4.18c-2.44,3.57-5.15,7.52-7.82,11.5h7.82Z"/><path d="M899.81,19.44c-.51,1.74-1.16,3.72-1.55,5.15h-14.6v-.93c2.13-2.09,4.45-4.37,6.35-6.58,2.44-2.87,4.76-6,4.76-9.33s-1.7-5.08-4.53-5.08c-2.67,0-4.34,2.09-5.34,3.6L884,5.46l2.2-3.14A7,7,0,0,1,891.52,0a6.33,6.33,0,0,1,6.58,6.7c0,3.29-1.2,5.62-4.88,9.37-1.66,1.74-4.1,4.11-5.77,5.69h7.4c2.09,0,2.67-.19,4-2.63Z"/><path d="M1048.08,17.54v2.95c0,2.55.16,2.75,3.3,3v1.08h-9.84V23.51c3.29-.27,3.48-.51,3.48-3.06V17.54H1034.8V16.38c3.68-5.23,7.67-10.88,11.54-16.26h1.74V15.68h3.8v1.86ZM1045,4.18c-2.44,3.57-5.15,7.52-7.82,11.5H1045Z"/><path d="M1070,13.36l-2.59,1.32a5.12,5.12,0,0,1-2.33.58,6.89,6.89,0,0,1-7-7.24,8,8,0,0,1,7.94-8c5,0,7.79,4.41,7.79,9.68a15.43,15.43,0,0,1-9.8,14.49,16.65,16.65,0,0,1-4.61,1l-.19-1.2A12.91,12.91,0,0,0,1070,13.36Zm-4.41-12c-3,0-4.07,2.86-4.07,5.57,0,3.41,1.9,6.24,5.15,6.24A6,6,0,0,0,1070.2,12a20.52,20.52,0,0,0,.15-2.51C1070.35,6.08,1069.38,1.36,1065.63,1.36Z"/></g></g></svg>